<svg width="22" height="22" viewBox="0 0 22 22" fill="none" xmlns="http://www.w3.org/2000/svg">
<path d="M2.75 2.75L19.25 19.25" stroke="#6D6D6D" stroke-width="1.4" stroke-linecap="round" stroke-linejoin="round"/>
<path d="M9.70209 9.70459C9.35808 10.0484 9.16472 10.5147 9.16455 11.001C9.16438 11.4874 9.35741 11.9538 9.70117 12.2978C10.0449 12.6418 10.5113 12.8352 10.9976 12.8354C11.4839 12.8356 11.9504 12.6425 12.2944 12.2988" stroke="#6D6D6D" stroke-width="1.4" stroke-linecap="round" stroke-linejoin="round"/>
<path d="M15.9107 15.9035C14.4157 16.9118 12.7803 17.4169 11.0002 17.4169C7.3335 17.4169 4.27825 15.2783 1.8335 11.0002C3.08841 8.8048 4.50375 7.17313 6.0795 6.1043M8.58291 4.91813C9.36888 4.6933 10.1827 4.58065 11.0002 4.58355C14.6668 4.58355 17.7221 6.72213 20.1668 11.0002C19.4537 12.2478 18.6892 13.3139 17.8724 14.1975L8.58291 4.91813Z" stroke="#6D6D6D" stroke-width="1.4" stroke-linecap="round" stroke-linejoin="round"/>
</svg>
