<svg width="100" height="80" viewBox="0 0 100 80" fill="none" xmlns="http://www.w3.org/2000/svg">
<path d="M86.6718 10.8591L84.8707 20.1818L94.7495 18.8238L86.6718 10.8591ZM84.0913 21.5469C83.9209 21.5469 83.7564 21.4768 83.6374 21.3513C83.499 21.2046 83.4393 21.0001 83.4777 20.8019L85.666 9.47479C85.7097 9.24846 85.8742 9.06441 86.0943 8.99608C86.3145 8.92754 86.5541 8.98605 86.7181 9.14768L96.5323 18.8249C96.702 18.9923 96.7621 19.2417 96.6868 19.4683C96.6118 19.6946 96.4148 19.8586 96.1788 19.8912L84.1764 21.5411C84.148 21.545 84.1196 21.5469 84.0913 21.5469Z" fill="#121212"/>
<path d="M21.186 2.08976L38.9908 42.6738L78.6927 37.2162L21.186 2.08976ZM38.6266 43.9199C38.3936 43.9199 38.1785 43.7824 38.0828 43.564L19.3368 0.834682C19.2325 0.596821 19.2943 0.318172 19.4898 0.147141C19.6853 -0.0241051 19.9691 -0.0482292 20.1906 0.0869293L80.7371 37.0701C80.9517 37.2013 81.0609 37.4534 81.0095 37.7C80.9583 37.9464 80.7575 38.1341 80.5085 38.1683L38.7078 43.9144C38.6808 43.9182 38.6535 43.9199 38.6266 43.9199Z" fill="#121212"/>
<path d="M59.4568 23.9205L80.1001 36.4164L85.1046 10.5109L59.4568 23.9205ZM80.5435 38.0424C80.4312 38.0424 80.3192 38.012 80.2203 37.952L57.8592 24.4163C57.666 24.2993 57.5509 24.087 57.5579 23.8609C57.565 23.635 57.6931 23.4302 57.8933 23.3256L85.6753 8.79994C85.8883 8.68891 86.1456 8.7094 86.3381 8.8531C86.5305 8.99659 86.6238 9.23787 86.5782 9.47402L81.1573 37.5352C81.1185 37.7362 80.984 37.9055 80.7972 37.9883C80.7162 38.0244 80.6299 38.0424 80.5435 38.0424Z" fill="#121212"/>
<path d="M3.12956 23.2739L37.5233 41.9421L29.6558 24.3487L3.12956 23.2739ZM38.7833 43.8986C38.6865 43.8986 38.5893 43.8751 38.5002 43.8266L0.31172 23.0986C0.0686356 22.9668 -0.0514562 22.6843 0.0218189 22.4172C0.0952005 22.1503 0.341376 21.9699 0.619019 21.9804L30.072 23.1739C30.2973 23.1831 30.4981 23.3193 30.5904 23.5254L39.3259 43.0598C39.4301 43.2928 39.3743 43.5663 39.1875 43.7397C39.075 43.8443 38.9298 43.8986 38.7833 43.8986Z" fill="#121212"/>
<path d="M23.7637 7.52662L42.5097 50.2559L84.3103 44.5098L23.7637 7.52662Z" fill="#FAFAFA"/>
<path d="M33.812 79.6864L42.6656 50.2345L84.4662 44.4882L33.812 79.6864Z" fill="#FAFAFA"/>
<path d="M84.4259 44.3475L89.847 16.2863L62.0649 30.8117L84.4259 44.3475Z" fill="#FAFAFA"/>
<path d="M89.8469 16.2863L99.6613 25.9633L87.6587 27.6132L89.8469 16.2863Z" fill="#FAFAFA"/>
<path d="M42.6658 50.2346L4.47754 29.5065L33.9304 30.7001L42.6658 50.2346Z" fill="#FAFAFA"/>
<path d="M24.7826 8.73927L42.5874 49.3233L82.2893 43.8657L24.7826 8.73927ZM42.2234 50.5696C41.9902 50.5696 41.7753 50.4321 41.6794 50.2137L22.9336 7.48418C22.8291 7.24632 22.8909 6.96768 23.0864 6.79665C23.2819 6.62541 23.5657 6.60127 23.7872 6.73643L84.3339 43.7197C84.5484 43.8508 84.6575 44.1029 84.6061 44.3495C84.555 44.5959 84.3541 44.7836 84.1051 44.8178L42.3045 50.5639C42.2774 50.5677 42.2503 50.5696 42.2234 50.5696Z" fill="#121212"/>
<path d="M42.8391 50.4907L34.5862 77.9434L81.8026 45.1345L42.8391 50.4907ZM33.5262 80C33.4034 80 33.2808 79.962 33.1767 79.8862C32.9723 79.7374 32.884 79.4754 32.9569 79.233L41.8107 49.7811C41.8778 49.558 42.0689 49.3947 42.2991 49.3629L84.1 43.6168C84.3716 43.5792 84.6347 43.7338 84.7345 43.9904C84.8345 44.2471 84.7453 44.5388 84.5196 44.6957L33.8651 79.8937C33.763 79.9646 33.6445 80 33.5262 80Z" fill="#121212"/>
<path d="M63.0535 30.5699L83.6967 43.0658L88.7013 17.1603L63.0535 30.5699ZM84.1402 44.6918C84.0278 44.6918 83.9159 44.6615 83.817 44.6015L61.4561 31.0657C61.2627 30.9487 61.1476 30.7364 61.1546 30.5103C61.1616 30.2844 61.2898 30.0796 61.49 29.975L89.272 15.4496C89.4848 15.3383 89.7423 15.3588 89.9348 15.5025C90.1271 15.646 90.2205 15.8873 90.1751 16.1234L84.754 44.1847C84.7152 44.3856 84.5807 44.5549 84.3939 44.6378C84.3129 44.6738 84.2265 44.6918 84.1402 44.6918Z" fill="#121212"/>
<path d="M89.953 17.2697L88.152 26.5925L98.0308 25.2345L89.953 17.2697ZM87.3725 27.9575C87.2022 27.9575 87.0376 27.8877 86.9189 27.7619C86.7803 27.6153 86.7206 27.4107 86.759 27.2126L88.9472 15.8857C88.9909 15.6591 89.1555 15.4751 89.3755 15.4067C89.596 15.3384 89.8354 15.3969 89.9993 15.5583L99.8135 25.2353C99.9832 25.4027 100.043 25.6523 99.9683 25.8787C99.893 26.1052 99.6961 26.2692 99.46 26.3017L87.4576 27.9518C87.4293 27.9556 87.4009 27.9575 87.3725 27.9575Z" fill="#121212"/>
<path d="M6.72564 29.9234L41.1195 48.5916L33.252 30.9982L6.72564 29.9234ZM42.3795 50.5479C42.2827 50.5479 42.1855 50.5244 42.0964 50.4761L3.90789 29.7481C3.66489 29.6163 3.54472 29.3338 3.61801 29.0667C3.69129 28.7998 3.9368 28.6192 4.21519 28.6299L33.6682 29.8232C33.8935 29.8324 34.0943 29.9686 34.1866 30.1749L42.9221 49.7094C43.0263 49.9423 42.9705 50.2156 42.7837 50.3892C42.6712 50.4938 42.526 50.5479 42.3795 50.5479Z" fill="#121212"/>
</svg>
